<svg width="25" height="25" viewBox="0 0 25 25" fill="none" xmlns="http://www.w3.org/2000/svg">
<mask id="mask0_144_207" style="mask-type:alpha" maskUnits="userSpaceOnUse" x="0" y="0" width="25" height="25">
<rect width="25" height="25" fill="#D9D9D9"/>
</mask>
<g mask="url(#mask0_144_207)">
<path d="M12.5 22.9167C11.1979 22.9167 9.9783 22.6693 8.84115 22.1745C7.70399 21.6797 6.71441 21.0113 5.8724 20.1693C5.03038 19.3273 4.36198 18.3377 3.86719 17.2005C3.3724 16.0634 3.125 14.8438 3.125 13.5417C3.125 12.2396 3.3724 11.02 3.86719 9.88283C4.36198 8.74568 5.03038 7.7561 5.8724 6.91408C6.71441 6.07207 7.70399 5.40367 8.84115 4.90887C9.9783 4.41408 11.1979 4.16669 12.5 4.16669C13.8021 4.16669 15.0217 4.41408 16.1589 4.90887C17.296 5.40367 18.2856 6.07207 19.1276 6.91408C19.9696 7.7561 20.638 8.74568 21.1328 9.88283C21.6276 11.02 21.875 12.2396 21.875 13.5417C21.875 14.8438 21.6276 16.0634 21.1328 17.2005C20.638 18.3377 19.9696 19.3273 19.1276 20.1693C18.2856 21.0113 17.296 21.6797 16.1589 22.1745C15.0217 22.6693 13.8021 22.9167 12.5 22.9167ZM15.4167 17.9167L16.875 16.4584L13.5417 13.125V8.33335H11.4583V13.9584L15.4167 17.9167ZM5.83333 2.44794L7.29167 3.90627L2.86458 8.33335L1.40625 6.87502L5.83333 2.44794ZM19.1667 2.44794L23.5938 6.87502L22.1354 8.33335L17.7083 3.90627L19.1667 2.44794ZM12.5 20.8334C14.5313 20.8334 16.2543 20.1259 17.6693 18.711C19.0842 17.296 19.7917 15.5729 19.7917 13.5417C19.7917 11.5104 19.0842 9.78735 17.6693 8.37242C16.2543 6.95749 14.5313 6.25002 12.5 6.25002C10.4688 6.25002 8.74566 6.95749 7.33073 8.37242C5.9158 9.78735 5.20833 11.5104 5.20833 13.5417C5.20833 15.5729 5.9158 17.296 7.33073 18.711C8.74566 20.1259 10.4688 20.8334 12.5 20.8334Z" fill="#332E3C"/>
</g>
</svg>
