<svg width="32" height="32" viewBox="0 0 32 32" fill="none" xmlns="http://www.w3.org/2000/svg">
<mask id="mask0_149_207" style="mask-type:alpha" maskUnits="userSpaceOnUse" x="0" y="0" width="32" height="32">
<rect width="32" height="32" fill="#D9D9D9"/>
</mask>
<g mask="url(#mask0_149_207)">
<path d="M26.8 22.6C27.1778 22.8 27.5111 22.7556 27.8 22.4667C28.0889 22.1778 28.1333 21.8445 27.9333 21.4667L26 17.8667L24.6 21.4667L26.8 22.6ZM20.1333 21.3334H21.7333L24.9333 13.4C25 13.2222 24.9833 13.0722 24.8833 12.95C24.7833 12.8278 24.6667 12.7334 24.5333 12.6667L21.8667 11.6C21.6667 11.5334 21.4722 11.5556 21.2833 11.6667C21.0944 11.7778 20.9778 11.9334 20.9333 12.1334L20.1333 21.3334ZM10.2667 21.3334H11.8667L11.0667 12.1334C11.0222 11.8889 10.9055 11.7222 10.7167 11.6334C10.5278 11.5445 10.3333 11.5334 10.1333 11.6L7.46666 12.6667C7.28888 12.7334 7.16111 12.8278 7.08333 12.95C7.00555 13.0722 6.99999 13.2222 7.06666 13.4L10.2667 21.3334ZM5.19999 22.6L7.39999 21.4667L5.99999 17.8667L4.06666 21.4667C3.86666 21.8445 3.91111 22.1778 4.19999 22.4667C4.48888 22.7556 4.82222 22.8 5.19999 22.6ZM14.5333 21.3334H17.4667L18.4667 10.0667C18.5111 9.86669 18.4611 9.69446 18.3167 9.55002C18.1722 9.40558 18 9.33335 17.8 9.33335H14.2C14.0222 9.33335 13.8611 9.40558 13.7167 9.55002C13.5722 9.69446 13.5111 9.86669 13.5333 10.0667L14.5333 21.3334ZM4.59999 25.3334C3.66666 25.3334 2.88888 24.9834 2.26666 24.2834C1.64444 23.5834 1.33333 22.7556 1.33333 21.8C1.33333 21.5334 1.37222 21.2722 1.44999 21.0167C1.52777 20.7611 1.62222 20.5111 1.73333 20.2667L4.66666 14.6667C4.35555 13.7778 4.36666 12.9 4.69999 12.0334C5.03333 11.1667 5.62222 10.5556 6.46666 10.2L9.13333 9.13335C9.44444 9.02224 9.75555 8.94446 10.0667 8.90002C10.3778 8.85558 10.6889 8.86669 11 8.93335C11.3111 8.28891 11.7444 7.75002 12.3 7.31669C12.8556 6.88335 13.4889 6.66669 14.2 6.66669H17.8C18.5111 6.66669 19.1444 6.88335 19.7 7.31669C20.2556 7.75002 20.6889 8.28891 21 8.93335C21.3111 8.88891 21.6222 8.88335 21.9333 8.91669C22.2444 8.95002 22.5555 9.02224 22.8667 9.13335L25.5333 10.2C26.4222 10.5556 27.0444 11.1667 27.4 12.0334C27.7556 12.9 27.7333 13.7556 27.3333 14.6L30.2667 20.2C30.4 20.4445 30.5 20.7 30.5667 20.9667C30.6333 21.2334 30.6667 21.5111 30.6667 21.8C30.6667 22.8 30.3278 23.6389 29.65 24.3167C28.9722 24.9945 28.1333 25.3334 27.1333 25.3334C26.8889 25.3334 26.6444 25.3056 26.4 25.25C26.1556 25.1945 25.9111 25.1111 25.6667 25L23.6 24H8.33333L6.46666 25C6.17777 25.1556 5.87222 25.25 5.54999 25.2834C5.22777 25.3167 4.91111 25.3334 4.59999 25.3334Z" fill="#1C1B1F"/>
</g>
</svg>
