<svg width="28" height="28" viewBox="0 0 28 28" fill="none" xmlns="http://www.w3.org/2000/svg">
<mask id="mask0_201_207" style="mask-type:alpha" maskUnits="userSpaceOnUse" x="0" y="0" width="28" height="28">
<rect width="28" height="28" fill="#D9D9D9"/>
</mask>
<g mask="url(#mask0_201_207)">
<path d="M9.8 19.8333L14 15.6333L18.2 19.8333L19.8333 18.2L15.6333 14L19.8333 9.80001L18.2 8.16668L14 12.3667L9.8 8.16668L8.16667 9.80001L12.3667 14L8.16667 18.2L9.8 19.8333ZM14 25.6667C12.3861 25.6667 10.8694 25.3604 9.45 24.7479C8.03056 24.1354 6.79584 23.3042 5.74584 22.2542C4.69584 21.2042 3.86459 19.9695 3.25209 18.55C2.63959 17.1306 2.33334 15.6139 2.33334 14C2.33334 12.3861 2.63959 10.8695 3.25209 9.45001C3.86459 8.03057 4.69584 6.79584 5.74584 5.74584C6.79584 4.69584 8.03056 3.86459 9.45 3.25209C10.8694 2.63959 12.3861 2.33334 14 2.33334C15.6139 2.33334 17.1306 2.63959 18.55 3.25209C19.9694 3.86459 21.2042 4.69584 22.2542 5.74584C23.3042 6.79584 24.1354 8.03057 24.7479 9.45001C25.3604 10.8695 25.6667 12.3861 25.6667 14C25.6667 15.6139 25.3604 17.1306 24.7479 18.55C24.1354 19.9695 23.3042 21.2042 22.2542 22.2542C21.2042 23.3042 19.9694 24.1354 18.55 24.7479C17.1306 25.3604 15.6139 25.6667 14 25.6667ZM14 23.3333C16.6056 23.3333 18.8125 22.4292 20.6208 20.6208C22.4292 18.8125 23.3333 16.6056 23.3333 14C23.3333 11.3945 22.4292 9.18751 20.6208 7.37918C18.8125 5.57084 16.6056 4.66668 14 4.66668C11.3944 4.66668 9.1875 5.57084 7.37917 7.37918C5.57084 9.18751 4.66667 11.3945 4.66667 14C4.66667 16.6056 5.57084 18.8125 7.37917 20.6208C9.1875 22.4292 11.3944 23.3333 14 23.3333Z" fill="#332E3C"/>
</g>
</svg>
