<svg width="32" height="32" viewBox="0 0 32 32" fill="none" xmlns="http://www.w3.org/2000/svg">
<mask id="mask0_150_244" style="mask-type:alpha" maskUnits="userSpaceOnUse" x="0" y="0" width="32" height="32">
<rect width="32" height="32" fill="#D9D9D9"/>
</mask>
<g mask="url(#mask0_150_244)">
<path d="M13.3333 26.6667H18.6667V25.2L20.3333 24.5333C21.7778 23.9555 23.0055 23.15 24.0167 22.1167C25.0278 21.0833 25.7555 19.9333 26.2 18.6667H5.79999C6.24443 19.9333 6.96666 21.0833 7.96666 22.1167C8.96666 23.15 10.2 23.9555 11.6667 24.5333L13.3333 25.2V26.6667ZM10.6667 29.3333V27C8.28888 26.0667 6.3611 24.6222 4.88332 22.6667C3.40555 20.7111 2.66666 18.4889 2.66666 16H5.33332V5.33332L29.3333 2.66666V4.66666L14 6.39999V8.66666H29.3333V10.6667H14V16H29.3333C29.3333 18.4889 28.5944 20.7111 27.1167 22.6667C25.6389 24.6222 23.7111 26.0667 21.3333 27V29.3333H10.6667ZM10.6667 8.66666H12V6.59999L10.6667 6.73332V8.66666ZM7.33332 8.66666H8.66666V6.99999L7.33332 7.13332V8.66666ZM10.6667 16H12V10.6667H10.6667V16ZM7.33332 16H8.66666V10.6667H7.33332V16Z" fill="#1C1B1F"/>
</g>
</svg>
