<svg width="32" height="32" viewBox="0 0 32 32" fill="none" xmlns="http://www.w3.org/2000/svg">
<mask id="mask0_150_232" style="mask-type:alpha" maskUnits="userSpaceOnUse" x="0" y="0" width="32" height="32">
<rect width="32" height="32" fill="#D9D9D9"/>
</mask>
<g mask="url(#mask0_150_232)">
<path d="M2.66666 13.3333V12C2.66666 9.44444 3.87221 7.47222 6.28332 6.08333C8.69443 4.69444 11.9333 4 16 4C20.0667 4 23.3055 4.69444 25.7167 6.08333C28.1278 7.47222 29.3333 9.44444 29.3333 12V13.3333H2.66666ZM5.53332 10.6667H26.4667C25.9555 9.37778 24.7722 8.38889 22.9167 7.7C21.0611 7.01111 18.7555 6.66667 16 6.66667C13.2444 6.66667 10.9389 7.01111 9.08332 7.7C7.22777 8.38889 6.04443 9.37778 5.53332 10.6667ZM2.66666 19.3333V16.6667C3.46666 16.6667 4.09999 16.4444 4.56666 16C5.03332 15.5556 5.88888 15.3333 7.13332 15.3333C8.37777 15.3333 9.22221 15.5556 9.66666 16C10.1111 16.4444 10.7333 16.6667 11.5333 16.6667C12.3333 16.6667 12.9667 16.4444 13.4333 16C13.9 15.5556 14.7555 15.3333 16 15.3333C17.2444 15.3333 18.1 15.5556 18.5667 16C19.0333 16.4444 19.6667 16.6667 20.4667 16.6667C21.2667 16.6667 21.8889 16.4444 22.3333 16C22.7778 15.5556 23.6222 15.3333 24.8667 15.3333C26.1111 15.3333 26.9889 15.5556 27.5 16C28.0111 16.4444 28.6222 16.6667 29.3333 16.6667V19.3333C28.0889 19.3333 27.2555 19.1111 26.8333 18.6667C26.4111 18.2222 25.8 18 25 18C24.2 18 23.5555 18.2222 23.0667 18.6667C22.5778 19.1111 21.7111 19.3333 20.4667 19.3333C19.2222 19.3333 18.3667 19.1111 17.9 18.6667C17.4333 18.2222 16.8 18 16 18C15.2 18 14.5667 18.2222 14.1 18.6667C13.6333 19.1111 12.7778 19.3333 11.5333 19.3333C10.2889 19.3333 9.44443 19.1111 8.99999 18.6667C8.55555 18.2222 7.93332 18 7.13332 18C6.33332 18 5.69999 18.2222 5.23332 18.6667C4.76666 19.1111 3.9111 19.3333 2.66666 19.3333ZM5.33332 28C4.59999 28 3.97221 27.7389 3.44999 27.2167C2.92777 26.6944 2.66666 26.0667 2.66666 25.3333V21.3333H29.3333V25.3333C29.3333 26.0667 29.0722 26.6944 28.55 27.2167C28.0278 27.7389 27.4 28 26.6667 28H5.33332ZM5.33332 25.3333H26.6667V24H5.33332V25.3333Z" fill="#1C1B1F"/>
</g>
</svg>
