<svg width="30" height="30" viewBox="0 0 30 30" fill="none" xmlns="http://www.w3.org/2000/svg">
<mask id="mask0_131_223" style="mask-type:alpha" maskUnits="userSpaceOnUse" x="0" y="0" width="30" height="30">
<rect width="30" height="30" fill="#D9D9D9"/>
</mask>
<g mask="url(#mask0_131_223)">
<path d="M13.75 26.1875C11.2292 25.875 9.14062 24.776 7.48438 22.8906C5.82812 21.0052 5 18.7917 5 16.25C5 14.875 5.27083 13.5573 5.8125 12.2969C6.35417 11.0365 7.125 9.9375 8.125 9L9.90625 10.7812C9.11458 11.4896 8.51562 12.3125 8.10938 13.25C7.70312 14.1875 7.5 15.1875 7.5 16.25C7.5 18.0833 8.08333 19.7031 9.25 21.1094C10.4167 22.5156 11.9167 23.375 13.75 23.6875V26.1875ZM16.25 26.1875V23.6875C18.0625 23.3542 19.5573 22.4896 20.7344 21.0938C21.9115 19.6979 22.5 18.0833 22.5 16.25C22.5 14.1667 21.7708 12.3958 20.3125 10.9375C18.8542 9.47917 17.0833 8.75 15 8.75H14.9062L16.2813 10.125L14.5312 11.875L10.1562 7.5L14.5312 3.125L16.2813 4.875L14.9062 6.25H15C17.7917 6.25 20.1562 7.21875 22.0938 9.15625C24.0312 11.0938 25 13.4583 25 16.25C25 18.7708 24.1719 20.974 22.5156 22.8594C20.8594 24.7448 18.7708 25.8542 16.25 26.1875Z" fill="#332E3C"/>
</g>
</svg>
