<svg width="40" height="40" viewBox="0 0 40 40" fill="none" xmlns="http://www.w3.org/2000/svg">
<mask id="mask0_131_223" style="mask-type:alpha" maskUnits="userSpaceOnUse" x="0" y="0" width="40" height="40">
<rect width="40" height="40" fill="#D9D9D9"/>
</mask>
<g mask="url(#mask0_131_223)">
<path d="M18.3334 34.9167C14.9722 34.5 12.1875 33.0347 9.97919 30.5208C7.77085 28.0069 6.66669 25.0555 6.66669 21.6667C6.66669 19.8333 7.0278 18.0764 7.75002 16.3958C8.47224 14.7153 9.50002 13.25 10.8334 12L13.2084 14.375C12.1528 15.3194 11.3542 16.4167 10.8125 17.6667C10.2709 18.9167 10 20.25 10 21.6667C10 24.1111 10.7778 26.2708 12.3334 28.1458C13.8889 30.0208 15.8889 31.1667 18.3334 31.5833V34.9167ZM21.6667 34.9167V31.5833C24.0834 31.1389 26.0764 29.9861 27.6459 28.125C29.2153 26.2639 30 24.1111 30 21.6667C30 18.8889 29.0278 16.5278 27.0834 14.5833C25.1389 12.6389 22.7778 11.6667 20 11.6667H19.875L21.7084 13.5L19.375 15.8333L13.5417 9.99999L19.375 4.16666L21.7084 6.49999L19.875 8.33332H20C23.7222 8.33332 26.875 9.62499 29.4584 12.2083C32.0417 14.7917 33.3334 17.9444 33.3334 21.6667C33.3334 25.0278 32.2292 27.9653 30.0209 30.4792C27.8125 32.993 25.0278 34.4722 21.6667 34.9167Z" fill="#332E3C"/>
</g>
</svg>
