<svg width="32" height="32" viewBox="0 0 32 32" fill="none" xmlns="http://www.w3.org/2000/svg">
<mask id="mask0_150_250" style="mask-type:alpha" maskUnits="userSpaceOnUse" x="0" y="0" width="32" height="32">
<rect width="32" height="32" fill="#D9D9D9"/>
</mask>
<g mask="url(#mask0_150_250)">
<path d="M16.0667 30.6667L9.8 18.6667C8.22222 18.7333 6.86111 18.2778 5.71667 17.3C4.57222 16.3222 4 15 4 13.3333C4 12.2 4.32778 11.1778 4.98333 10.2667C5.63889 9.35557 6.46667 8.71112 7.46667 8.33334C7.86667 6.31112 8.86111 4.6389 10.45 3.31668C12.0389 1.99445 13.8889 1.33334 16 1.33334C18.1111 1.33334 19.9611 1.99445 21.55 3.31668C23.1389 4.6389 24.1333 6.31112 24.5333 8.33334C25.5333 8.71112 26.3611 9.35557 27.0167 10.2667C27.6722 11.1778 28 12.2 28 13.3333C28 15 27.4111 16.3222 26.2333 17.3C25.0556 18.2778 23.7333 18.7333 22.2667 18.6667L16.0667 30.6667ZM9.33333 16C9.66667 16 9.99444 15.9445 10.3167 15.8333C10.6389 15.7222 10.9333 15.5333 11.2 15.2667L11.9333 14.5333L12.8 15.0667C13.2667 15.3778 13.7722 15.6111 14.3167 15.7667C14.8611 15.9222 15.4222 16 16 16C16.5778 16 17.1389 15.9222 17.6833 15.7667C18.2278 15.6111 18.7333 15.3778 19.2 15.0667L20.0667 14.5333L20.8 15.2667C21.0667 15.5333 21.3611 15.7222 21.6833 15.8333C22.0056 15.9445 22.3333 16 22.6667 16C23.4 16 24.0278 15.7389 24.55 15.2167C25.0722 14.6945 25.3333 14.0667 25.3333 13.3333C25.3333 12.6667 25.1222 12.0833 24.7 11.5833C24.2778 11.0833 23.7333 10.7778 23.0667 10.6667L22.0667 10.5333L22 9.46668C21.8889 7.93334 21.2556 6.6389 20.1 5.58334C18.9444 4.52779 17.5778 4.00001 16 4.00001C14.4222 4.00001 13.0556 4.52779 11.9 5.58334C10.7444 6.6389 10.1111 7.93334 10 9.46668L9.93333 10.5333L8.93333 10.7333C8.26667 10.8667 7.72222 11.1667 7.3 11.6333C6.87778 12.1 6.66667 12.6667 6.66667 13.3333C6.66667 14.0667 6.92778 14.6945 7.45 15.2167C7.97222 15.7389 8.6 16 9.33333 16ZM16.0667 24.8667L19.6667 17.8667C19.1333 18.1333 18.5556 18.3333 17.9333 18.4667C17.3111 18.6 16.6667 18.6667 16 18.6667C15.4 18.6667 14.7944 18.6 14.1833 18.4667C13.5722 18.3333 12.9778 18.1333 12.4 17.8667L16.0667 24.8667Z" fill="#1C1B1F"/>
</g>
</svg>
