<svg width="40" height="40" viewBox="0 0 40 40" fill="none" xmlns="http://www.w3.org/2000/svg">
<mask id="mask0_18_18" style="mask-type:alpha" maskUnits="userSpaceOnUse" x="0" y="0" width="40" height="40">
<rect width="40" height="40" fill="#D9D9D9"/>
</mask>
<g mask="url(#mask0_18_18)">
<path d="M15 33.3334L12.6667 31L15.5833 28C12.0278 27.5278 9.09723 26.5556 6.79168 25.0834C4.48612 23.6111 3.33334 21.9167 3.33334 20C3.33334 17.6945 4.93751 15.7292 8.14584 14.1042C11.3542 12.4792 15.3056 11.6667 20 11.6667C24.6945 11.6667 28.6458 12.4792 31.8542 14.1042C35.0625 15.7292 36.6667 17.6945 36.6667 20C36.6667 21.7222 35.7431 23.2639 33.8958 24.625C32.0486 25.9861 29.6389 27 26.6667 27.6667V24.25C28.8056 23.6945 30.4514 23.007 31.6042 22.1875C32.757 21.3681 33.3333 20.6389 33.3333 20C33.3333 19.1111 32.1458 18.0556 29.7708 16.8334C27.3958 15.6111 24.1389 15 20 15C15.8611 15 12.6042 15.6111 10.2292 16.8334C7.85418 18.0556 6.66668 19.1111 6.66668 20C6.66668 20.6667 7.37501 21.4653 8.79168 22.3959C10.2083 23.3264 12.2222 24.0278 14.8333 24.5L12.6667 22.3334L15 20L21.6667 26.6667L15 33.3334Z" fill="#1C1B1F"/>
</g>
</svg>
